# xmcd
#
# Track frame offsets:
#	150
#	16110
#	29387
#	42889
#	52557
#	64264
#	78732
#	94717
#	110757
#	127940
#	139042
#	154490
#	176762
#	188695
#
# Disc length: 2674 seconds
#
# Revision: 0
# Processed by: cddbd v1.5.1PL0 Copyright (c) Steve Scherf et al.
# Submitted via: dBpowerAMP V4.0
#
DISCID=b30a700e
DTITLE=Ike and Tina Turner - Living For The City
DYEAR=1997
DGENRE=Pop
TTITLE0=Living For The City
TTITLE1=Too Much For One Woman
TTITLE2=Tina's Prayer
TTITLE3=You're Still My Baby
TTITLE4=If You Want It
TTITLE5=Rockin' And Rollin' Again
TTITLE6=Mississippi Rolling Stone
TTITLE7=Shake A Hand
TTITLE8=You're Up To Something
TTITLE9=Raise your Hand
TTITLE10=Jesus
TTITLE11=Push
TTITLE12=Sugar Sugar
TTITLE13=Let's Get It On
EXTD=
EXTT0=
EXTT1=
EXTT2=
EXTT3=
EXTT4=
EXTT5=
EXTT6=
EXTT7=
EXTT8=
EXTT9=
EXTT10=
EXTT11=
EXTT12=
EXTT13=
PLAYORDER=
